<svg xmlns="http://www.w3.org/2000/svg" viewBox="0 10 165 45" width="150" height="50">       <path d="M28.833 9.131c-12.862 0-23.323 10.46-23.323 23.321 0 12.859 10.461 23.323 23.323 23.323 6.402 0 12.209-2.597 16.428-6.789H33.084V18.703h14.543c-4.248-5.79-11.078-9.572-18.794-9.572z" fill="none"></path>       <path d="M28.833 55.775c-12.862 0-23.323-10.464-23.323-23.323 0-12.86 10.461-23.321 23.323-23.321 7.716 0 14.546 3.781 18.795 9.572h4.983C47.847 10.498 38.984 4.954 28.833 4.954c-15.165 0-27.5 12.336-27.5 27.498 0 15.168 12.335 27.502 27.5 27.502 8.952 0 16.897-4.321 21.922-10.968h-5.494c-4.219 4.193-10.026 6.789-16.428 6.789z" fill="#F27521"></path>       <g fill="#0C0C0C">      <path d="M66.27 28.244c0 2.885-.984 5.104-2.953 6.657-1.969 1.553-4.786 2.33-8.45 2.33h-3.353v11.207H48.2V19.94h7.387c7.122 0 10.683 2.768 10.683 8.304zm-14.755 6.14h2.982c2.936 0 5.061-.474 6.374-1.423 1.313-.948 1.969-2.468 1.969-4.561 0-1.884-.617-3.288-1.852-4.21-1.235-.923-3.158-1.384-5.77-1.384h-3.703v11.578zM90.186 37.736c0 3.482-.877 6.202-2.632 8.157-1.754 1.956-4.178 2.934-7.27 2.934-1.91 0-3.605-.448-5.087-1.345-1.481-.896-2.625-2.183-3.431-3.859-.806-1.676-1.208-3.639-1.208-5.887 0-3.481.871-6.195 2.612-8.138 1.742-1.942 4.159-2.914 7.251-2.914 2.988 0 5.364.994 7.124 2.982 1.76 1.989 2.641 4.679 2.641 8.07zm-16.276 0c0 2.729.546 4.808 1.638 6.237 1.091 1.431 2.696 2.145 4.814 2.145s3.727-.712 4.825-2.135c1.098-1.423 1.646-3.505 1.646-6.247 0-2.716-.549-4.778-1.646-6.189-1.099-1.409-2.72-2.115-4.864-2.115-2.118 0-3.717.695-4.795 2.086-1.078 1.391-1.618 3.463-1.618 6.218zM110.477 48.438v-13.82c0-1.741-.396-3.04-1.188-3.898-.793-.858-2.035-1.287-3.724-1.287-2.235 0-3.873.604-4.912 1.813-1.04 1.208-1.559 3.204-1.559 5.985v11.207h-3.236V27.074h2.631l.526 2.924h.156c.663-1.052 1.592-1.868 2.787-2.446 1.196-.578 2.528-.867 3.996-.867 2.573 0 4.509.621 5.809 1.861 1.299 1.241 1.95 3.226 1.95 5.954v13.938h-3.236zM120.087 21.286c0-.741.182-1.283.546-1.628.362-.344.818-.516 1.364-.516.519 0 .968.175 1.345.526.376.352.564.891.564 1.619s-.188 1.27-.564 1.627c-.377.357-.826.536-1.345.536-.546 0-1.002-.178-1.364-.536-.364-.358-.546-.901-.546-1.628zm3.508 27.152h-3.235V27.074h3.235v21.364zM138.994 48.827c-3.093 0-5.487-.951-7.183-2.855-1.696-1.903-2.544-4.598-2.544-8.08 0-3.572.861-6.334 2.583-8.283s4.174-2.924 7.358-2.924c1.025 0 2.053.11 3.08.331 1.025.222 1.831.481 2.416.78l-.994 2.748c-.715-.285-1.494-.522-2.339-.711s-1.592-.283-2.241-.283c-4.34 0-6.51 2.768-6.51 8.304 0 2.625.528 4.639 1.587 6.042 1.06 1.404 2.629 2.105 4.709 2.105 1.779 0 3.604-.384 5.476-1.15v2.866c-1.429.74-3.228 1.11-5.398 1.11zM163.242 42.609c0 1.987-.74 3.521-2.222 4.601-1.481 1.078-3.561 1.617-6.237 1.617-2.833 0-5.042-.448-6.627-1.345v-3.001c1.025.519 2.127.929 3.303 1.228 1.177.299 2.311.448 3.402.448 1.688 0 2.988-.271 3.898-.81.908-.539 1.364-1.36 1.364-2.465 0-.832-.361-1.544-1.082-2.135-.721-.592-2.128-1.29-4.221-2.096-1.987-.74-3.4-1.387-4.238-1.939-.838-.552-1.462-1.179-1.872-1.881-.409-.702-.614-1.54-.614-2.514 0-1.742.709-3.115 2.125-4.123 1.417-1.006 3.359-1.51 5.829-1.51 2.3 0 4.547.468 6.743 1.403l-1.15 2.631c-2.144-.883-4.086-1.326-5.827-1.326-1.534 0-2.69.241-3.47.722-.78.48-1.17 1.143-1.17 1.988 0 .572.146 1.059.439 1.461.292.403.763.787 1.412 1.15.65.364 1.897.891 3.743 1.58 2.534.922 4.246 1.851 5.136 2.786.891.938 1.336 2.114 1.336 3.53z"></path>       </g>       <path d="M39.168 42.134V30.015c0-1.485-.317-2.598-.952-3.34-.634-.742-1.621-1.113-2.958-1.113-1.756 0-3.054.504-3.893 1.512-.838 1.009-1.258 2.561-1.258 4.657v10.402h-2.821V30.015c0-1.485-.317-2.598-.952-3.34s-1.626-1.113-2.975-1.113c-1.768 0-3.063.529-3.884 1.589-.822 1.06-1.232 2.796-1.232 5.21v9.773h-2.821V23.505h2.294l.459 2.55h.136c.533-.906 1.284-1.615 2.252-2.125.969-.51 2.054-.765 3.255-.765 2.912 0 4.816 1.054 5.711 3.161h.136c.555-.975 1.359-1.745 2.413-2.312 1.054-.567 2.255-.85 3.604-.85 2.108 0 3.686.541 4.733 1.623 1.049 1.082 1.573 2.813 1.573 5.192v12.153h-2.82z" fill="#0C0C0C"></path>       <g fill="#010101">      <path d="M56.494 57.551v-2.439c0-.363-.07-.627-.212-.794-.141-.166-.358-.25-.65-.25-.381 0-.663.105-.845.314-.183.211-.274.541-.274.989v2.18h-.346v-2.542c0-.628-.287-.941-.862-.941-.391 0-.675.114-.853.341s-.267.591-.267 1.09v2.053h-.338v-3.72h.28l.072.511h.021c.103-.186.249-.328.438-.43.19-.102.399-.153.626-.153.586 0 .963.221 1.129.661h.014c.121-.212.284-.375.488-.489.204-.113.436-.172.696-.172.406 0 .711.108.914.326.203.217.305.562.305 1.033v2.433h-.336zM60.292 57.551l-.085-.588h-.027c-.187.239-.379.409-.576.508-.198.1-.431.149-.7.149-.365 0-.649-.094-.852-.282-.203-.187-.305-.445-.305-.776 0-.362.151-.645.454-.844.302-.201.74-.308 1.313-.319l.708-.021v-.246c0-.354-.072-.621-.216-.802-.143-.179-.375-.27-.694-.27-.344 0-.702.096-1.071.287l-.127-.294c.408-.191.812-.287 1.211-.287.409 0 .713.106.916.318.202.212.302.543.302.992v2.474h-.251zm-1.368-.239c.397 0 .71-.114.939-.341s.344-.542.344-.946v-.366l-.65.028c-.522.024-.895.106-1.118.245-.223.137-.333.352-.333.645 0 .232.071.413.214.542s.344.193.604.193zM63.211 53.759c.158 0 .327.017.507.049l-.065.325c-.155-.039-.316-.058-.482-.058-.317 0-.578.134-.781.402-.203.27-.304.609-.304 1.021v2.053h-.338v-3.72h.287l.034.671h.024c.152-.273.316-.466.489-.576.173-.112.383-.167.629-.167zM64.806 55.919l1.899-2.088h.411l-1.464 1.588 1.591 2.132h-.408l-1.413-1.879-.609.555v1.324h-.339v-5.324h.339v2.669l-.024 1.023h.017zM69.367 57.62c-.54 0-.962-.167-1.264-.5s-.453-.8-.453-1.399c0-.593.146-1.069.438-1.426s.686-.536 1.181-.536c.438 0 .784.154 1.037.459.253.306.38.721.38 1.246v.274h-2.679c.004.51.124.9.357 1.169.234.271.569.404 1.004.404.212 0 .399-.015.56-.044.161-.03.365-.094.61-.192v.309c-.21.091-.404.153-.582.187-.178.032-.374.049-.589.049zm-.099-3.559c-.358 0-.646.118-.863.354-.216.235-.343.576-.379 1.021h2.299c0-.431-.094-.768-.28-1.011-.187-.242-.447-.364-.777-.364zM72.693 57.318c.214 0 .401-.019.561-.055v.273c-.164.055-.354.083-.568.083-.328 0-.571-.089-.727-.265-.156-.175-.234-.451-.234-.827v-2.403h-.551v-.197l.551-.154.171-.842h.174v.899h1.092v.294H72.07v2.355c0 .284.05.496.151.633s.258.206.472.206zM74.011 52.798c0-.22.072-.328.216-.328.07 0 .126.028.166.085.04.057.06.139.06.243 0 .103-.02.184-.06.243-.04.06-.096.089-.166.089-.144 0-.216-.111-.216-.332zm.386 4.753h-.338v-3.72h.338v3.72zM78.237 57.551v-2.412c0-.374-.079-.646-.236-.816-.157-.17-.401-.255-.732-.255-.445 0-.771.112-.977.337-.207.225-.31.589-.31 1.094v2.053h-.338v-3.72h.288l.065.511h.02c.242-.389.672-.583 1.291-.583.844 0 1.266.454 1.266 1.359v2.433h-.337zM82.678 53.831v.236l-.77.048c.205.256.308.536.308.842 0 .358-.119.648-.357.871s-.559.334-.96.334c-.168 0-.287-.008-.355-.021-.135.07-.237.153-.308.249-.07.096-.106.198-.106.306 0 .118.045.205.135.26.09.055.242.081.454.081h.649c.404 0 .714.082.928.245.215.163.322.404.322.725 0 .392-.159.694-.479.907-.317.214-.771.32-1.36.32-.468 0-.83-.09-1.086-.27-.256-.181-.385-.432-.385-.753 0-.256.079-.469.237-.638.159-.168.374-.283.646-.345-.112-.048-.201-.115-.269-.204-.067-.088-.101-.188-.101-.303 0-.248.158-.467.476-.656-.217-.089-.385-.229-.506-.42-.121-.19-.182-.408-.182-.655 0-.372.118-.67.354-.895.236-.225.555-.338.956-.338.244 0 .434.025.568.072h1.191zm-3.011 4.35c0 .511.38.767 1.139.767.976 0 1.464-.312 1.464-.935 0-.224-.076-.386-.229-.485-.153-.101-.4-.15-.743-.15h-.608c-.681-.001-1.023.267-1.023.803zm.284-3.19c0 .288.087.511.262.669.174.159.408.237.7.237.31 0 .548-.078.713-.235s.248-.385.248-.684c0-.318-.085-.556-.255-.715-.17-.157-.407-.237-.713-.237-.296 0-.53.085-.7.255-.169.17-.255.407-.255.71zM87.52 57.551l-.085-.588h-.027c-.188.239-.38.409-.577.508-.196.1-.431.149-.699.149-.365 0-.649-.094-.853-.282-.202-.187-.305-.445-.305-.776 0-.362.151-.645.453-.844.303-.201.74-.308 1.313-.319l.708-.021v-.246c0-.354-.071-.621-.215-.802-.144-.179-.376-.27-.694-.27-.345 0-.702.096-1.071.287l-.127-.294c.408-.191.813-.287 1.212-.287.408 0 .713.106.915.318s.303.543.303.992v2.474h-.251zm-1.368-.239c.397 0 .71-.114.938-.341.229-.227.345-.542.345-.946v-.366l-.65.028c-.522.024-.896.106-1.117.245-.223.137-.333.352-.333.645 0 .232.07.413.214.542.141.128.343.193.603.193zM89.269 53.831v2.409c0 .374.078.646.236.816.156.17.4.255.731.255.442 0 .769-.111.978-.335.208-.224.313-.588.313-1.092V53.83h.335v3.72h-.286l-.063-.514h-.021c-.242.389-.672.583-1.29.583-.847 0-1.269-.454-1.269-1.359v-2.43h.336zM94.091 57.318c.215 0 .401-.019.561-.055v.273c-.163.055-.354.083-.567.083-.328 0-.571-.089-.728-.265-.156-.175-.233-.451-.233-.827v-2.403h-.552v-.197l.552-.154.171-.842h.174v.899h1.091v.294h-1.091v2.355c0 .284.051.496.15.633.1.138.257.206.472.206zM98.533 55.687c0 .606-.146 1.08-.441 1.421-.294.342-.7.513-1.218.513-.327 0-.614-.08-.862-.236-.25-.158-.439-.384-.572-.678-.132-.295-.198-.634-.198-1.02 0-.607.147-1.08.441-1.418.294-.34.698-.51 1.212-.51.51 0 .912.172 1.202.516.29.343.436.814.436 1.412zm-2.937 0c0 .511.112.909.337 1.195.225.287.543.43.953.43.411 0 .729-.143.953-.43.226-.286.337-.685.337-1.195 0-.514-.112-.911-.341-1.194-.227-.283-.545-.425-.956-.425-.41 0-.727.141-.949.423s-.334.68-.334 1.196zM104.209 57.551v-2.439c0-.363-.071-.627-.213-.794-.142-.166-.357-.25-.65-.25-.381 0-.662.105-.845.314-.183.211-.274.541-.274.989v2.18h-.345v-2.542c0-.628-.288-.941-.862-.941-.39 0-.675.114-.853.341s-.267.591-.267 1.09v2.053h-.339v-3.72h.28l.072.511h.021c.103-.186.248-.328.438-.43.188-.102.397-.153.626-.153.585 0 .963.221 1.129.661h.014c.121-.212.283-.375.488-.489.204-.113.436-.172.695-.172.406 0 .711.108.914.326.202.217.305.562.305 1.033v2.433h-.334zM108.007 57.551l-.085-.588h-.027c-.188.239-.38.409-.577.508-.196.1-.431.149-.699.149-.365 0-.648-.094-.852-.282-.203-.187-.306-.445-.306-.776 0-.362.151-.645.454-.844.303-.201.739-.308 1.313-.319l.708-.021v-.246c0-.354-.072-.621-.215-.802-.145-.179-.376-.27-.695-.27-.345 0-.701.096-1.071.287l-.127-.294c.408-.191.813-.287 1.212-.287.408 0 .714.106.915.318.202.212.304.543.304.992v2.474h-.252zm-1.368-.239c.397 0 .71-.114.938-.341.23-.227.345-.542.345-.946v-.366l-.65.028c-.522.024-.896.106-1.117.245-.223.137-.333.352-.333.645 0 .232.07.413.214.542.141.128.343.193.603.193zM110.444 57.318c.215 0 .401-.019.561-.055v.273c-.163.055-.354.083-.567.083-.328 0-.571-.089-.727-.265-.157-.175-.235-.451-.235-.827v-2.403h-.55v-.197l.55-.154.172-.842h.174v.899h1.092v.294h-1.092v2.355c0 .284.051.496.15.633.1.138.257.206.472.206zM111.761 52.798c0-.22.071-.328.216-.328.07 0 .126.028.165.085.04.057.061.139.061.243 0 .103-.021.184-.061.243-.039.06-.095.089-.165.089-.144 0-.216-.111-.216-.332zm.387 4.753h-.339v-3.72h.339v3.72zM116.47 55.687c0 .606-.147 1.08-.441 1.421-.294.342-.7.513-1.218.513-.327 0-.615-.08-.863-.236-.249-.158-.439-.384-.571-.678-.132-.295-.198-.634-.198-1.02 0-.607.146-1.08.441-1.418.294-.34.698-.51 1.212-.51.51 0 .911.172 1.201.516.291.343.437.814.437 1.412zm-2.936 0c0 .511.112.909.337 1.195.225.287.543.43.953.43.411 0 .729-.143.953-.43.225-.286.337-.685.337-1.195 0-.514-.113-.911-.341-1.194-.227-.283-.546-.425-.956-.425s-.728.141-.949.423c-.223.281-.334.68-.334 1.196zM120.093 57.551v-2.412c0-.374-.078-.646-.234-.816-.158-.17-.402-.255-.733-.255-.444 0-.77.112-.978.337-.206.225-.309.589-.309 1.094v2.053h-.339v-3.72h.287l.065.511h.021c.241-.389.671-.583 1.29-.583.844 0 1.267.454 1.267 1.359v2.433h-.337zM128.101 57.551v-2.439c0-.363-.071-.627-.213-.794-.142-.166-.357-.25-.65-.25-.381 0-.662.105-.845.314-.183.211-.274.541-.274.989v2.18h-.345v-2.542c0-.628-.288-.941-.862-.941-.39 0-.675.114-.852.341-.179.227-.268.591-.268 1.09v2.053h-.339v-3.72h.28l.072.511h.021c.103-.186.248-.328.438-.43.188-.102.397-.153.626-.153.585 0 .963.221 1.129.661h.014c.121-.212.283-.375.488-.489.204-.113.436-.172.696-.172.405 0 .71.108.913.326.202.217.305.562.305 1.033v2.433h-.334zM131.899 57.551l-.085-.588h-.027c-.188.239-.379.409-.577.508-.196.1-.431.149-.699.149-.365 0-.648-.094-.852-.282-.203-.187-.306-.445-.306-.776 0-.362.152-.645.454-.844.303-.201.739-.308 1.313-.319l.708-.021v-.246c0-.354-.072-.621-.215-.802-.145-.179-.376-.27-.695-.27-.345 0-.701.096-1.071.287l-.126-.294c.408-.191.812-.287 1.211-.287.408 0 .714.106.916.318.201.212.303.543.303.992v2.474h-.252zm-1.368-.239c.396 0 .71-.114.938-.341.23-.227.345-.542.345-.946v-.366l-.65.028c-.522.024-.895.106-1.117.245-.223.137-.333.352-.333.645 0 .232.071.413.214.542.141.128.343.193.603.193zM134.716 53.759c.269 0 .501.05.697.147.196.099.372.267.527.504h.02c-.014-.288-.02-.569-.02-.846v-1.338h.335v5.324h-.223l-.086-.568h-.026c-.283.425-.689.638-1.219.638-.514 0-.905-.16-1.177-.479-.272-.32-.407-.785-.407-1.396 0-.644.134-1.135.403-1.475s.663-.511 1.176-.511zm0 .308c-.406 0-.713.143-.917.428s-.306.699-.306 1.243c0 1.054.41 1.58 1.229 1.58.42 0 .728-.122.924-.365.197-.245.295-.648.295-1.209v-.058c0-.575-.097-.988-.289-1.241-.194-.251-.505-.378-.936-.378zM139.027 57.62c-.54 0-.962-.167-1.265-.5-.302-.333-.453-.8-.453-1.399 0-.593.146-1.069.438-1.426s.686-.536 1.181-.536c.438 0 .783.154 1.036.459.254.306.381.721.381 1.246v.274h-2.681c.006.51.125.9.357 1.169.234.271.569.404 1.005.404.213 0 .398-.015.56-.044.161-.03.364-.094.611-.192v.309c-.211.091-.404.153-.582.187-.178.032-.373.049-.588.049zm-.099-3.559c-.359 0-.646.118-.863.354-.217.235-.344.576-.38 1.021h2.3c0-.431-.094-.768-.28-1.011-.187-.242-.446-.364-.777-.364zM145.498 56.583c0 .333-.127.589-.38.769-.254.178-.612.269-1.077.269-.498 0-.893-.076-1.185-.23v-.366c.374.188.769.281 1.185.281.367 0 .646-.061.836-.184.19-.121.286-.284.286-.487 0-.187-.076-.344-.228-.472s-.4-.254-.748-.377c-.371-.135-.634-.25-.784-.347s-.264-.207-.34-.329c-.077-.121-.114-.271-.114-.447 0-.277.116-.498.351-.659.233-.162.561-.244.98-.244.4 0 .782.076 1.143.227l-.126.308c-.365-.15-.704-.226-1.017-.226-.304 0-.545.051-.722.15-.179.101-.268.239-.268.418 0 .193.068.349.207.465.138.117.407.247.809.39.336.122.58.23.733.328.152.097.267.206.344.33.076.121.115.267.115.433zM146.408 52.798c0-.22.072-.328.216-.328.071 0 .126.028.165.085.04.057.061.139.061.243 0 .103-.021.184-.061.243-.039.06-.094.089-.165.089-.144 0-.216-.111-.216-.332zm.386 4.753h-.338v-3.72h.338v3.72zM152.688 57.551v-2.439c0-.363-.071-.627-.213-.794-.142-.166-.358-.25-.65-.25-.381 0-.662.105-.845.314-.183.211-.274.541-.274.989v2.18h-.345v-2.542c0-.628-.288-.941-.862-.941-.391 0-.675.114-.853.341s-.268.591-.268 1.09v2.053h-.338v-3.72h.28l.072.511h.021c.103-.186.248-.328.438-.43s.398-.153.627-.153c.585 0 .962.221 1.129.661h.014c.12-.212.283-.375.488-.489.204-.113.436-.172.695-.172.406 0 .711.108.913.326.203.217.306.562.306 1.033v2.433h-.335zM155.818 57.62c-.572 0-.99-.215-1.253-.644h-.023l.01.287c.01.169.014.354.014.554v1.417h-.338v-5.403h.287l.065.53h.021c.255-.401.663-.603 1.225-.603.502 0 .885.166 1.147.495.264.33.396.81.396 1.438 0 .611-.139 1.086-.415 1.423-.279.337-.657.506-1.136.506zm-.007-.302c.381 0 .676-.141.885-.425.208-.282.313-.678.313-1.187 0-1.093-.396-1.64-1.185-1.64-.434 0-.751.119-.954.357-.203.239-.306.628-.306 1.166v.111c0 .581.099.997.293 1.245.196.249.514.373.954.373zM158.737 57.551h-.339v-5.324h.339v5.324zM161.484 57.62c-.54 0-.961-.167-1.264-.5-.302-.333-.453-.8-.453-1.399 0-.593.146-1.069.438-1.426.293-.356.686-.536 1.181-.536.438 0 .783.154 1.037.459.253.306.38.721.38 1.246v.274h-2.68c.005.51.124.9.357 1.169.234.271.569.404 1.004.404.213 0 .399-.015.561-.044.161-.03.363-.094.611-.192v.309c-.211.091-.404.153-.583.187-.178.032-.374.049-.589.049zm-.099-3.559c-.358 0-.646.118-.862.354-.217.235-.344.576-.38 1.021h2.3c0-.431-.094-.768-.28-1.011-.188-.242-.447-.364-.778-.364z"></path>       </g>     </svg>